<mxfile host="app.diagrams.net" modified="2023-06-08T18:23:45.054Z" agent="Mozilla/5.0 (Windows NT 10.0; Win64; x64) AppleWebKit/537.36 (KHTML, like Gecko) Chrome/114.0.0.0 Safari/537.36" etag="0FYfjZX6YkJcVFf7DO21" version="21.3.7" type="device">
  <diagram name="Page-1" id="2YBvvXClWsGukQMizWep">
    <mxGraphModel dx="716" dy="1092" grid="1" gridSize="10" guides="1" tooltips="1" connect="1" arrows="1" fold="1" page="1" pageScale="1" pageWidth="850" pageHeight="1100" math="0" shadow="0">
      <root>
        <mxCell id="0" />
        <mxCell id="1" parent="0" />
        <mxCell id="7zt48MkTeC1z5JekWczL-42" value="" style="shape=umlLifeline;perimeter=lifelinePerimeter;whiteSpace=wrap;html=1;container=1;dropTarget=0;collapsible=0;recursiveResize=0;outlineConnect=0;portConstraint=eastwest;newEdgeStyle={&quot;edgeStyle&quot;:&quot;elbowEdgeStyle&quot;,&quot;elbow&quot;:&quot;vertical&quot;,&quot;curved&quot;:0,&quot;rounded&quot;:0};participant=umlActor;" vertex="1" parent="1">
          <mxGeometry x="135" y="140" width="20" height="820" as="geometry" />
        </mxCell>
        <mxCell id="7zt48MkTeC1z5JekWczL-9" value="Student Portal Room Management" style="shape=umlLifeline;perimeter=lifelinePerimeter;whiteSpace=wrap;html=1;container=0;dropTarget=0;collapsible=0;recursiveResize=0;outlineConnect=0;portConstraint=eastwest;newEdgeStyle={&quot;edgeStyle&quot;:&quot;elbowEdgeStyle&quot;,&quot;elbow&quot;:&quot;vertical&quot;,&quot;curved&quot;:0,&quot;rounded&quot;:0};" vertex="1" parent="1">
          <mxGeometry x="258" y="160" width="100" height="800" as="geometry" />
        </mxCell>
        <mxCell id="7zt48MkTeC1z5JekWczL-10" value="" style="html=1;points=[];perimeter=orthogonalPerimeter;outlineConnect=0;targetShapes=umlLifeline;portConstraint=eastwest;newEdgeStyle={&quot;edgeStyle&quot;:&quot;elbowEdgeStyle&quot;,&quot;elbow&quot;:&quot;vertical&quot;,&quot;curved&quot;:0,&quot;rounded&quot;:0};" vertex="1" parent="7zt48MkTeC1z5JekWczL-9">
          <mxGeometry x="45" y="70" width="10" height="310" as="geometry" />
        </mxCell>
        <mxCell id="7zt48MkTeC1z5JekWczL-11" value="Type of Room Page" style="shape=umlLifeline;perimeter=lifelinePerimeter;whiteSpace=wrap;html=1;container=0;dropTarget=0;collapsible=0;recursiveResize=0;outlineConnect=0;portConstraint=eastwest;newEdgeStyle={&quot;edgeStyle&quot;:&quot;elbowEdgeStyle&quot;,&quot;elbow&quot;:&quot;vertical&quot;,&quot;curved&quot;:0,&quot;rounded&quot;:0};" vertex="1" parent="1">
          <mxGeometry x="438" y="160" width="100" height="800" as="geometry" />
        </mxCell>
        <mxCell id="7zt48MkTeC1z5JekWczL-12" value="" style="html=1;points=[];perimeter=orthogonalPerimeter;outlineConnect=0;targetShapes=umlLifeline;portConstraint=eastwest;newEdgeStyle={&quot;edgeStyle&quot;:&quot;elbowEdgeStyle&quot;,&quot;elbow&quot;:&quot;vertical&quot;,&quot;curved&quot;:0,&quot;rounded&quot;:0};" vertex="1" parent="7zt48MkTeC1z5JekWczL-11">
          <mxGeometry x="45" y="80" width="10" height="680" as="geometry" />
        </mxCell>
        <mxCell id="7zt48MkTeC1z5JekWczL-13" value="" style="html=1;points=[];perimeter=orthogonalPerimeter;outlineConnect=0;targetShapes=umlLifeline;portConstraint=eastwest;newEdgeStyle={&quot;edgeStyle&quot;:&quot;elbowEdgeStyle&quot;,&quot;elbow&quot;:&quot;vertical&quot;,&quot;curved&quot;:0,&quot;rounded&quot;:0};direction=west;" vertex="1" parent="7zt48MkTeC1z5JekWczL-11">
          <mxGeometry x="52" y="240" width="8" height="30" as="geometry" />
        </mxCell>
        <mxCell id="7zt48MkTeC1z5JekWczL-14" value="View and select the desired&amp;nbsp;&lt;br&gt;room type" style="html=1;align=left;spacingLeft=2;endArrow=block;rounded=0;edgeStyle=orthogonalEdgeStyle;curved=0;rounded=0;" edge="1" parent="7zt48MkTeC1z5JekWczL-11" source="7zt48MkTeC1z5JekWczL-12" target="7zt48MkTeC1z5JekWczL-13">
          <mxGeometry relative="1" as="geometry">
            <mxPoint x="60" y="220" as="sourcePoint" />
            <Array as="points">
              <mxPoint x="90" y="220" />
              <mxPoint x="90" y="255" />
            </Array>
          </mxGeometry>
        </mxCell>
        <mxCell id="7zt48MkTeC1z5JekWczL-15" value="return" style="html=1;verticalAlign=bottom;endArrow=open;dashed=1;endSize=8;edgeStyle=elbowEdgeStyle;elbow=vertical;curved=0;rounded=0;" edge="1" parent="1" source="7zt48MkTeC1z5JekWczL-12" target="7zt48MkTeC1z5JekWczL-10">
          <mxGeometry relative="1" as="geometry">
            <mxPoint x="413" y="325" as="targetPoint" />
            <Array as="points">
              <mxPoint x="385" y="520" />
              <mxPoint x="375" y="450" />
              <mxPoint x="408" y="400" />
            </Array>
          </mxGeometry>
        </mxCell>
        <mxCell id="7zt48MkTeC1z5JekWczL-16" value="Student" style="shape=umlActor;verticalLabelPosition=bottom;verticalAlign=top;html=1;" vertex="1" parent="1">
          <mxGeometry x="135" y="140" width="20" height="40" as="geometry" />
        </mxCell>
        <mxCell id="7zt48MkTeC1z5JekWczL-17" value="" style="html=1;points=[];perimeter=orthogonalPerimeter;outlineConnect=0;targetShapes=umlLifeline;portConstraint=eastwest;newEdgeStyle={&quot;edgeStyle&quot;:&quot;elbowEdgeStyle&quot;,&quot;elbow&quot;:&quot;vertical&quot;,&quot;curved&quot;:0,&quot;rounded&quot;:0};" vertex="1" parent="1">
          <mxGeometry x="140" y="230" width="10" height="190" as="geometry" />
        </mxCell>
        <mxCell id="7zt48MkTeC1z5JekWczL-18" value="" style="endArrow=none;dashed=1;html=1;rounded=0;" edge="1" parent="1" source="7zt48MkTeC1z5JekWczL-17">
          <mxGeometry width="50" height="50" relative="1" as="geometry">
            <mxPoint x="165" y="230" as="sourcePoint" />
            <mxPoint x="145" y="200" as="targetPoint" />
          </mxGeometry>
        </mxCell>
        <mxCell id="7zt48MkTeC1z5JekWczL-20" value="Go to &quot;Student Portal Room&amp;nbsp;&lt;br&gt;Management&quot; page" style="html=1;verticalAlign=bottom;endArrow=block;edgeStyle=elbowEdgeStyle;elbow=vertical;curved=0;rounded=0;" edge="1" parent="1" target="7zt48MkTeC1z5JekWczL-10">
          <mxGeometry width="80" relative="1" as="geometry">
            <mxPoint x="150" y="260.13" as="sourcePoint" />
            <mxPoint x="295" y="260" as="targetPoint" />
          </mxGeometry>
        </mxCell>
        <mxCell id="7zt48MkTeC1z5JekWczL-21" value="Click the &quot;Type of Room&quot;&lt;br&gt;option" style="html=1;verticalAlign=bottom;endArrow=block;edgeStyle=elbowEdgeStyle;elbow=vertical;curved=0;rounded=0;" edge="1" parent="1" source="7zt48MkTeC1z5JekWczL-10" target="7zt48MkTeC1z5JekWczL-12">
          <mxGeometry width="80" relative="1" as="geometry">
            <mxPoint x="325" y="280" as="sourcePoint" />
            <mxPoint x="405" y="280" as="targetPoint" />
            <Array as="points">
              <mxPoint x="375" y="280" />
            </Array>
          </mxGeometry>
        </mxCell>
        <mxCell id="7zt48MkTeC1z5JekWczL-22" value="Database" style="shape=umlLifeline;perimeter=lifelinePerimeter;whiteSpace=wrap;html=1;container=1;dropTarget=0;collapsible=0;recursiveResize=0;outlineConnect=0;portConstraint=eastwest;newEdgeStyle={&quot;edgeStyle&quot;:&quot;elbowEdgeStyle&quot;,&quot;elbow&quot;:&quot;vertical&quot;,&quot;curved&quot;:0,&quot;rounded&quot;:0};" vertex="1" parent="1">
          <mxGeometry x="645" y="160" width="100" height="800" as="geometry" />
        </mxCell>
        <mxCell id="7zt48MkTeC1z5JekWczL-23" value="" style="html=1;points=[];perimeter=orthogonalPerimeter;outlineConnect=0;targetShapes=umlLifeline;portConstraint=eastwest;newEdgeStyle={&quot;edgeStyle&quot;:&quot;elbowEdgeStyle&quot;,&quot;elbow&quot;:&quot;vertical&quot;,&quot;curved&quot;:0,&quot;rounded&quot;:0};" vertex="1" parent="7zt48MkTeC1z5JekWczL-22">
          <mxGeometry x="45" y="100" width="10" height="270" as="geometry" />
        </mxCell>
        <mxCell id="7zt48MkTeC1z5JekWczL-24" value="Retrieves the list type of&amp;nbsp;&lt;br&gt;rooms" style="html=1;verticalAlign=bottom;endArrow=block;edgeStyle=elbowEdgeStyle;elbow=vertical;curved=0;rounded=0;" edge="1" parent="1" target="7zt48MkTeC1z5JekWczL-23">
          <mxGeometry x="0.2424" width="80" relative="1" as="geometry">
            <mxPoint x="538" y="300" as="sourcePoint" />
            <mxPoint x="618" y="300.33" as="targetPoint" />
            <Array as="points">
              <mxPoint x="495" y="300" />
            </Array>
            <mxPoint as="offset" />
          </mxGeometry>
        </mxCell>
        <mxCell id="7zt48MkTeC1z5JekWczL-25" value="Displays the list type of&lt;br&gt;rooms" style="html=1;verticalAlign=bottom;endArrow=open;dashed=1;endSize=8;edgeStyle=elbowEdgeStyle;elbow=vertical;curved=0;rounded=0;" edge="1" parent="1" source="7zt48MkTeC1z5JekWczL-23" target="7zt48MkTeC1z5JekWczL-12">
          <mxGeometry x="-0.0005" relative="1" as="geometry">
            <mxPoint x="645" y="350" as="sourcePoint" />
            <mxPoint x="535" y="340" as="targetPoint" />
            <Array as="points">
              <mxPoint x="595" y="350" />
            </Array>
            <mxPoint as="offset" />
          </mxGeometry>
        </mxCell>
        <mxCell id="7zt48MkTeC1z5JekWczL-26" value="Retrieves the detailed information of&amp;nbsp;&lt;br&gt;the selected room type" style="html=1;verticalAlign=bottom;endArrow=block;edgeStyle=elbowEdgeStyle;elbow=vertical;curved=0;rounded=0;" edge="1" parent="1">
          <mxGeometry x="0.2017" width="80" relative="1" as="geometry">
            <mxPoint x="538" y="460" as="sourcePoint" />
            <mxPoint x="690" y="460" as="targetPoint" />
            <Array as="points">
              <mxPoint x="495" y="460" />
            </Array>
            <mxPoint as="offset" />
          </mxGeometry>
        </mxCell>
        <mxCell id="7zt48MkTeC1z5JekWczL-27" value="Displays the detailed information of&lt;br&gt;the selected room type" style="html=1;verticalAlign=bottom;endArrow=open;dashed=1;endSize=8;edgeStyle=elbowEdgeStyle;elbow=vertical;curved=0;rounded=0;" edge="1" parent="1">
          <mxGeometry x="-0.0005" relative="1" as="geometry">
            <mxPoint x="692" y="500" as="sourcePoint" />
            <mxPoint x="495" y="500" as="targetPoint" />
            <Array as="points">
              <mxPoint x="597" y="500" />
            </Array>
            <mxPoint as="offset" />
          </mxGeometry>
        </mxCell>
        <mxCell id="7zt48MkTeC1z5JekWczL-28" value="sd UC07" style="shape=umlFrame;whiteSpace=wrap;html=1;pointerEvents=0;" vertex="1" parent="1">
          <mxGeometry x="75" y="110" width="1045" height="890" as="geometry" />
        </mxCell>
        <mxCell id="7zt48MkTeC1z5JekWczL-29" value="Room Booking Form&amp;nbsp;" style="shape=umlLifeline;perimeter=lifelinePerimeter;whiteSpace=wrap;html=1;container=1;dropTarget=0;collapsible=0;recursiveResize=0;outlineConnect=0;portConstraint=eastwest;newEdgeStyle={&quot;edgeStyle&quot;:&quot;elbowEdgeStyle&quot;,&quot;elbow&quot;:&quot;vertical&quot;,&quot;curved&quot;:0,&quot;rounded&quot;:0};" vertex="1" parent="1">
          <mxGeometry x="840" y="160" width="100" height="800" as="geometry" />
        </mxCell>
        <mxCell id="7zt48MkTeC1z5JekWczL-30" value="" style="html=1;points=[];perimeter=orthogonalPerimeter;outlineConnect=0;targetShapes=umlLifeline;portConstraint=eastwest;newEdgeStyle={&quot;edgeStyle&quot;:&quot;elbowEdgeStyle&quot;,&quot;elbow&quot;:&quot;vertical&quot;,&quot;curved&quot;:0,&quot;rounded&quot;:0};" vertex="1" parent="7zt48MkTeC1z5JekWczL-29">
          <mxGeometry x="45" y="370" width="10" height="390" as="geometry" />
        </mxCell>
        <mxCell id="7zt48MkTeC1z5JekWczL-33" value="" style="html=1;points=[];perimeter=orthogonalPerimeter;outlineConnect=0;targetShapes=umlLifeline;portConstraint=eastwest;newEdgeStyle={&quot;edgeStyle&quot;:&quot;elbowEdgeStyle&quot;,&quot;elbow&quot;:&quot;vertical&quot;,&quot;curved&quot;:0,&quot;rounded&quot;:0};direction=east;" vertex="1" parent="7zt48MkTeC1z5JekWczL-29">
          <mxGeometry x="49" y="435" width="15" height="40" as="geometry" />
        </mxCell>
        <mxCell id="7zt48MkTeC1z5JekWczL-34" value="fills in information" style="html=1;align=left;spacingLeft=2;endArrow=block;rounded=0;edgeStyle=orthogonalEdgeStyle;curved=0;rounded=0;" edge="1" target="7zt48MkTeC1z5JekWczL-33" parent="7zt48MkTeC1z5JekWczL-29" source="7zt48MkTeC1z5JekWczL-30">
          <mxGeometry relative="1" as="geometry">
            <mxPoint x="61" y="420" as="sourcePoint" />
            <Array as="points">
              <mxPoint x="96" y="420" />
              <mxPoint x="96" y="455" />
            </Array>
          </mxGeometry>
        </mxCell>
        <mxCell id="7zt48MkTeC1z5JekWczL-35" value="" style="html=1;points=[];perimeter=orthogonalPerimeter;outlineConnect=0;targetShapes=umlLifeline;portConstraint=eastwest;newEdgeStyle={&quot;edgeStyle&quot;:&quot;elbowEdgeStyle&quot;,&quot;elbow&quot;:&quot;vertical&quot;,&quot;curved&quot;:0,&quot;rounded&quot;:0};" vertex="1" parent="7zt48MkTeC1z5JekWczL-29">
          <mxGeometry x="51" y="510" width="10" height="40" as="geometry" />
        </mxCell>
        <mxCell id="7zt48MkTeC1z5JekWczL-36" value="submit form" style="html=1;align=left;spacingLeft=2;endArrow=block;rounded=0;edgeStyle=orthogonalEdgeStyle;curved=0;rounded=0;" edge="1" target="7zt48MkTeC1z5JekWczL-35" parent="7zt48MkTeC1z5JekWczL-29">
          <mxGeometry relative="1" as="geometry">
            <mxPoint x="56" y="490" as="sourcePoint" />
            <Array as="points">
              <mxPoint x="86" y="520" />
            </Array>
          </mxGeometry>
        </mxCell>
        <mxCell id="7zt48MkTeC1z5JekWczL-37" value="" style="html=1;points=[];perimeter=orthogonalPerimeter;outlineConnect=0;targetShapes=umlLifeline;portConstraint=eastwest;newEdgeStyle={&quot;edgeStyle&quot;:&quot;elbowEdgeStyle&quot;,&quot;elbow&quot;:&quot;vertical&quot;,&quot;curved&quot;:0,&quot;rounded&quot;:0};" vertex="1" parent="7zt48MkTeC1z5JekWczL-29">
          <mxGeometry x="51" y="580" width="10" height="40" as="geometry" />
        </mxCell>
        <mxCell id="7zt48MkTeC1z5JekWczL-38" value="validates the entered details" style="html=1;align=left;spacingLeft=2;endArrow=block;rounded=0;edgeStyle=orthogonalEdgeStyle;curved=0;rounded=0;" edge="1" target="7zt48MkTeC1z5JekWczL-37" parent="7zt48MkTeC1z5JekWczL-29">
          <mxGeometry relative="1" as="geometry">
            <mxPoint x="56" y="560" as="sourcePoint" />
            <Array as="points">
              <mxPoint x="86" y="590" />
            </Array>
          </mxGeometry>
        </mxCell>
        <mxCell id="7zt48MkTeC1z5JekWczL-32" value="Clicks on the &quot;Book&quot; button to proceed to the room booking form" style="html=1;verticalAlign=bottom;endArrow=block;edgeStyle=elbowEdgeStyle;elbow=vertical;curved=0;rounded=0;" edge="1" parent="1" source="7zt48MkTeC1z5JekWczL-12" target="7zt48MkTeC1z5JekWczL-30">
          <mxGeometry x="0.0051" width="80" relative="1" as="geometry">
            <mxPoint x="550" y="570" as="sourcePoint" />
            <mxPoint x="630" y="570" as="targetPoint" />
            <Array as="points">
              <mxPoint x="750" y="560" />
              <mxPoint x="580" y="580" />
            </Array>
            <mxPoint as="offset" />
          </mxGeometry>
        </mxCell>
        <mxCell id="7zt48MkTeC1z5JekWczL-43" value="Error (incomplete&amp;nbsp; or invalid reservation details)" style="html=1;verticalAlign=bottom;endArrow=open;dashed=1;endSize=8;edgeStyle=elbowEdgeStyle;elbow=vertical;curved=0;rounded=0;" edge="1" parent="1" target="7zt48MkTeC1z5JekWczL-12">
          <mxGeometry relative="1" as="geometry">
            <mxPoint x="880" y="800" as="sourcePoint" />
            <mxPoint x="800" y="800" as="targetPoint" />
          </mxGeometry>
        </mxCell>
      </root>
    </mxGraphModel>
  </diagram>
</mxfile>
